<svg width="24" height="24" viewBox="0 0 24 24" fill="none" xmlns="http://www.w3.org/2000/svg">
<path d="M3.54797 20.938H20.448C20.5806 20.938 20.7078 20.8853 20.8015 20.7916C20.8953 20.6978 20.948 20.5706 20.948 20.438C20.948 20.3054 20.8953 20.1782 20.8015 20.0845C20.7078 19.9907 20.5806 19.938 20.448 19.938H3.54797C3.41537 19.938 3.28819 19.9907 3.19442 20.0845C3.10065 20.1782 3.04797 20.3054 3.04797 20.438C3.04797 20.5706 3.10065 20.6978 3.19442 20.7916C3.28819 20.8853 3.41537 20.938 3.54797 20.938ZM9.70997 17.18C10.1324 17.0618 10.5178 16.8381 10.83 16.53L20.37 6.99002C20.6967 6.66203 20.8801 6.21796 20.8801 5.75502C20.8801 5.29209 20.6967 4.84801 20.37 4.52002L19.43 3.59002C19.0973 3.27228 18.655 3.09497 18.195 3.09497C17.735 3.09497 17.2926 3.27228 16.96 3.59002L7.41997 13.12C7.11131 13.4302 6.89047 13.8166 6.77997 14.24L6.03997 17C6.00487 17.1261 6.00396 17.2592 6.03735 17.3858C6.07075 17.5123 6.13723 17.6277 6.22997 17.72C6.37152 17.8592 6.5615 17.938 6.75997 17.94L9.70997 17.18ZM10.12 15.82C9.93562 16.0077 9.70422 16.1424 9.44997 16.21L8.47997 16.47L7.47997 15.47L7.73997 14.5C7.80992 14.2468 7.94428 14.0159 8.12997 13.83L8.50997 13.46L10.5 15.45L10.12 15.82ZM11.21 14.74L9.21997 12.75L15.95 6.02002L17.94 8.01002L11.21 14.74ZM19.66 6.29002L18.65 7.30002L16.66 5.31002L17.67 4.29002C17.7395 4.22024 17.8221 4.16487 17.913 4.12708C18.004 4.0893 18.1015 4.06985 18.2 4.06985C18.2985 4.06985 18.396 4.0893 18.4869 4.12708C18.5779 4.16487 18.6605 4.22024 18.73 4.29002L19.66 5.23002C19.7995 5.37116 19.8777 5.56159 19.8777 5.76002C19.8777 5.95845 19.7995 6.14888 19.66 6.29002Z" fill="#33302F"/>
</svg>
