<svg width="48" height="48" viewBox="0 0 48 48" fill="none" xmlns="http://www.w3.org/2000/svg">
<path d="M18.748 12.816C17.008 12.883 15.435 13.504 14.594 14.346C14.5011 14.4389 14.3908 14.5125 14.2694 14.5627C14.1481 14.6129 14.018 14.6388 13.8867 14.6387C13.7553 14.6387 13.6253 14.6127 13.5039 14.5624C13.3826 14.5121 13.2724 14.4384 13.1795 14.3455C13.0867 14.2526 13.013 14.1423 12.9628 14.0209C12.9126 13.8996 12.8868 13.7695 12.8868 13.6382C12.8869 13.5068 12.9128 13.3768 12.9631 13.2554C13.0134 13.1341 13.0871 13.0239 13.18 12.931C14.477 11.634 16.589 10.898 18.67 10.817C20.765 10.736 23.052 11.309 24.654 12.911C24.8415 13.0986 24.9468 13.3531 24.9467 13.6184C24.9466 13.8836 24.8412 14.138 24.6535 14.3255C24.4659 14.513 24.2114 14.6183 23.9462 14.6182C23.6809 14.6181 23.4265 14.5126 23.239 14.325C22.149 13.234 20.475 12.748 18.748 12.815V12.816Z" fill="#262221"/>
<path fill-rule="evenodd" clip-rule="evenodd" d="M27.384 28.936C25.0409 30.9188 22.0695 32.0047 19 32C11.82 32 6 26.18 6 19C6 11.82 11.82 6 19 6C26.18 6 32 11.82 32 19C32 22.195 30.848 25.12 28.936 27.384L31.144 27L41.428 37.284C42.191 38.047 42.191 39.284 41.428 40.046L40.046 41.428C39.283 42.191 38.046 42.191 37.284 41.428L27 31.144L27.384 28.936ZM30 19C30 25.075 25.075 30 19 30C12.925 30 8 25.075 8 19C8 12.925 12.925 8 19 8C25.075 8 30 12.925 30 19ZM37.249 35.933L30.464 29.148L29.344 29.343L29.148 30.464L35.953 37.269L37.249 35.933ZM37.367 38.683L38.665 39.981L39.981 38.665L38.663 37.347L37.367 38.683Z" fill="#262221"/>
</svg>
