<svg width="871" height="410" viewBox="0 0 871 410" fill="none" xmlns="http://www.w3.org/2000/svg">
<path d="M42.6123 270V266.633C45.1974 266.497 46.9661 265.918 47.9185 264.898C48.8709 263.809 49.3811 262.347 49.4491 260.51C49.5852 258.605 49.6532 256.462 49.6532 254.081V209.999C49.6532 208.639 49.6872 207.346 49.7553 206.122C49.8233 204.829 49.8913 203.673 49.9593 202.652C48.7348 202.72 47.5103 202.788 46.2858 202.856C45.0613 202.924 43.8368 202.992 42.6123 203.06V198.571H89.9599L90.4701 216.428H87.1027C87.1027 212.414 86.4564 209.387 85.1639 207.346C83.8713 205.237 82.1706 203.843 80.0618 203.162C77.9529 202.414 75.6059 202.074 73.0209 202.142L65.5718 202.346C63.0548 202.414 61.32 203.026 60.3676 204.183C59.4152 205.271 58.871 206.734 58.735 208.571C58.5989 210.407 58.5309 212.516 58.5309 214.897V232.449L76.2862 232.551L75.5719 223.673H80.0618V245.204H76.7964C76.7964 242.143 76.3542 239.966 75.4699 238.673C74.6535 237.381 73.361 236.598 71.5923 236.326C69.8235 236.054 67.5106 235.986 64.6534 236.122L58.5309 236.428V257.857C58.5309 259.694 58.4969 261.292 58.4288 262.653C58.4288 263.946 58.3608 265.034 58.2248 265.918C59.3812 265.85 60.5377 265.816 61.6942 265.816C62.8507 265.748 64.0071 265.68 65.1636 265.612C66.3201 265.544 67.4766 265.51 68.6331 265.51V270H42.6123ZM109.651 266.939C111.76 266.939 113.222 266.429 114.039 265.408C114.855 264.32 115.331 262.857 115.467 261.02C115.603 259.116 115.671 256.939 115.671 254.49V231.224C115.671 230.136 115.705 229.115 115.773 228.163C115.841 227.142 115.943 225.952 116.079 224.591C114.855 224.659 113.63 224.727 112.406 224.795C111.249 224.863 110.059 224.931 108.834 224.999V220.714C111.828 220.714 114.141 220.578 115.773 220.305C117.406 220.033 118.63 219.693 119.447 219.285C120.331 218.877 121.011 218.435 121.488 217.959H124.447V259.184C124.447 260.544 124.413 261.769 124.345 262.857C124.345 263.877 124.243 264.966 124.039 266.122C125.127 266.054 126.182 266.02 127.202 266.02C128.29 265.952 129.379 265.884 130.467 265.816V270H109.651V266.939ZM119.549 207.856C118.12 207.856 116.862 207.278 115.773 206.122C114.685 204.965 114.141 203.537 114.141 201.836C114.141 200.135 114.685 198.707 115.773 197.55C116.93 196.326 118.222 195.713 119.651 195.713C121.216 195.713 122.508 196.326 123.529 197.55C124.617 198.707 125.161 200.135 125.161 201.836C125.161 203.537 124.583 204.965 123.426 206.122C122.338 207.278 121.045 207.856 119.549 207.856ZM151.105 270V266.939C153.214 266.939 154.677 266.429 155.493 265.408C156.31 264.32 156.786 262.857 156.922 261.02C157.058 259.116 157.126 256.939 157.126 254.49L157.228 231.224C157.228 230.136 157.228 229.047 157.228 227.959C157.296 226.87 157.432 225.748 157.636 224.591C156.412 224.659 155.187 224.727 153.963 224.795C152.806 224.863 151.616 224.931 150.391 224.999V220.714C153.384 220.714 155.629 220.578 157.126 220.305C158.691 220.033 159.847 219.693 160.595 219.285C161.344 218.877 161.956 218.435 162.432 217.959H165.391C165.459 218.435 165.493 218.979 165.493 219.591C165.561 220.203 165.629 220.884 165.697 221.632C165.765 222.38 165.799 223.231 165.799 224.183C167.296 222.891 168.929 221.734 170.697 220.714C172.534 219.693 174.439 218.877 176.412 218.265C178.453 217.652 180.46 217.346 182.432 217.346C188.351 217.346 192.671 219.217 195.392 222.959C198.113 226.632 199.473 232.38 199.473 240.204V259.184C199.473 260.544 199.439 261.769 199.371 262.857C199.371 263.877 199.269 264.966 199.065 266.122C200.154 266.054 201.208 266.02 202.228 266.02C203.317 265.952 204.405 265.884 205.494 265.816V270H184.677V266.939C186.786 266.939 188.249 266.429 189.065 265.408C189.881 264.32 190.358 262.857 190.494 261.02C190.63 259.116 190.698 256.939 190.698 254.49V240.204C190.63 234.353 189.643 229.931 187.739 226.938C185.902 223.945 182.977 222.482 178.963 222.55C176.514 222.618 174.099 223.265 171.718 224.489C169.405 225.714 167.466 227.278 165.901 229.183C165.97 229.727 166.004 230.34 166.004 231.02C166.004 231.7 166.004 232.414 166.004 233.163L165.901 259.184C165.901 260.544 165.867 261.769 165.799 262.857C165.799 263.877 165.697 264.966 165.493 266.122C166.582 266.054 167.636 266.02 168.657 266.02C169.745 265.952 170.834 265.884 171.922 265.816V270H151.105ZM250.537 271.633C245.844 271.633 241.592 270.544 237.782 268.367C234.041 266.122 231.081 262.993 228.905 258.979C226.728 254.898 225.639 250.102 225.639 244.592C225.639 239.83 226.694 235.374 228.802 231.224C230.979 227.074 234.007 223.741 237.884 221.224C241.762 218.639 246.252 217.346 251.354 217.346C254.211 217.346 256.864 217.822 259.313 218.775C261.83 219.659 264.041 221.054 265.946 222.959C267.851 224.795 269.347 227.142 270.436 229.999C271.524 232.789 272.068 236.088 272.068 239.898L236.15 240.51C236.15 245.68 236.694 250.238 237.782 254.183C238.939 258.061 240.775 261.088 243.292 263.265C245.809 265.374 249.041 266.429 252.986 266.429C255.095 266.429 257.238 266.054 259.415 265.306C261.66 264.558 263.735 263.537 265.64 262.245C267.544 260.952 269.075 259.524 270.232 257.959L272.681 260C270.844 262.857 268.633 265.136 266.048 266.837C263.463 268.537 260.81 269.762 258.089 270.51C255.367 271.259 252.85 271.633 250.537 271.633ZM236.456 236.224H262.476C262.476 233.775 262.102 231.428 261.354 229.183C260.674 226.87 259.517 224.999 257.884 223.571C256.252 222.074 254.109 221.326 251.456 221.326C247.51 221.326 244.211 222.516 241.558 224.897C238.973 227.21 237.272 230.986 236.456 236.224ZM314.823 271.633C311.422 271.633 308.395 271.156 305.741 270.204C303.088 269.32 300.911 268.299 299.211 267.143L299.619 270.714H295.333L294.721 253.163H297.884C298.02 255.952 298.803 258.469 300.231 260.714C301.66 262.891 303.496 264.592 305.741 265.816C307.986 267.041 310.401 267.653 312.986 267.653C314.755 267.653 316.49 267.381 318.191 266.837C319.891 266.224 321.32 265.34 322.476 264.184C323.633 262.959 324.211 261.428 324.211 259.592C324.211 257.687 323.633 256.122 322.476 254.898C321.388 253.605 319.925 252.483 318.089 251.53C316.252 250.578 314.279 249.694 312.17 248.877C310.129 248.061 308.088 247.211 306.048 246.326C304.007 245.442 302.102 244.387 300.333 243.163C298.632 241.938 297.272 240.442 296.252 238.673C295.231 236.904 294.721 234.727 294.721 232.142C294.721 230.714 294.993 229.149 295.537 227.448C296.081 225.748 297 224.149 298.292 222.652C299.585 221.088 301.354 219.829 303.599 218.877C305.843 217.856 308.701 217.346 312.17 217.346C314.007 217.346 316.048 217.652 318.293 218.265C320.538 218.877 322.714 220.033 324.823 221.734L324.619 217.856H328.905V235.714H325.64C325.504 233.333 324.959 231.054 324.007 228.877C323.055 226.632 321.66 224.795 319.823 223.367C317.986 221.87 315.605 221.122 312.68 221.122C309.551 221.122 307.102 221.904 305.333 223.469C303.565 225.033 302.68 226.836 302.68 228.877C302.68 230.986 303.326 232.755 304.619 234.183C305.98 235.544 307.714 236.734 309.823 237.755C311.932 238.775 314.177 239.762 316.558 240.714C319.143 241.802 321.66 242.993 324.109 244.285C326.558 245.578 328.565 247.211 330.129 249.183C331.694 251.088 332.476 253.571 332.476 256.632C332.476 260.034 331.592 262.857 329.823 265.102C328.123 267.347 325.912 268.98 323.191 270C320.538 271.088 317.748 271.633 314.823 271.633ZM434.68 220.203C434.476 216.938 433.694 213.843 432.333 210.918C430.973 207.992 429 205.611 426.415 203.775C423.83 201.938 420.531 201.02 416.517 201.02C412.299 201.02 409.068 202.21 406.823 204.591C404.578 206.972 403.455 209.761 403.455 212.958C403.455 215.816 404.272 218.231 405.905 220.203C407.537 222.108 409.646 223.809 412.231 225.306C414.884 226.734 417.673 228.129 420.599 229.489C423.184 230.646 425.769 231.904 428.354 233.265C430.939 234.557 433.286 236.054 435.395 237.755C437.504 239.455 439.17 241.496 440.395 243.877C441.687 246.19 442.334 248.979 442.334 252.245C442.334 255.986 441.381 259.32 439.476 262.245C437.64 265.17 434.952 267.483 431.415 269.184C427.878 270.816 423.558 271.633 418.456 271.633C415.394 271.633 412.231 271.19 408.966 270.306C405.7 269.422 402.809 268.129 400.292 266.429L400.802 270.816H395.496L394.884 249.081H398.864C399.204 255.068 401.279 259.626 405.088 262.755C408.898 265.816 413.49 267.347 418.864 267.347C421.517 267.347 423.966 266.871 426.211 265.918C428.456 264.898 430.225 263.435 431.517 261.531C432.878 259.626 433.558 257.313 433.558 254.592C433.558 251.53 432.742 248.979 431.109 246.938C429.476 244.898 427.367 243.129 424.782 241.632C422.197 240.136 419.442 238.707 416.517 237.347C413.932 236.19 411.381 234.966 408.864 233.673C406.347 232.38 404.034 230.918 401.925 229.285C399.884 227.584 398.217 225.578 396.925 223.265C395.7 220.952 395.088 218.163 395.088 214.897C395.088 213.129 395.394 211.224 396.006 209.183C396.619 207.142 397.673 205.203 399.17 203.367C400.734 201.462 402.843 199.931 405.496 198.775C408.217 197.55 411.653 196.938 415.803 196.938C418.388 196.938 421.279 197.312 424.476 198.06C427.742 198.741 430.769 200.101 433.558 202.142L433.15 197.754H438.354V220.203H434.68ZM495.128 270C494.924 268.844 494.788 267.823 494.72 266.939C494.652 266.054 494.55 265.136 494.414 264.184C492.101 266.497 489.584 268.333 486.863 269.694C484.21 270.986 481.387 271.633 478.393 271.633C473.223 271.633 469.38 270.476 466.863 268.163C464.346 265.782 463.087 262.891 463.087 259.49C463.087 256.36 464.04 253.673 465.944 251.428C467.917 249.115 470.434 247.245 473.495 245.816C476.625 244.319 479.992 243.231 483.598 242.551C487.271 241.802 490.809 241.462 494.21 241.53V235.204C494.21 232.823 494.006 230.578 493.598 228.469C493.19 226.36 492.305 224.625 490.945 223.265C489.584 221.904 487.407 221.19 484.414 221.122C482.441 221.054 480.4 221.428 478.291 222.244C476.251 223.061 474.754 224.455 473.802 226.428C474.346 226.972 474.686 227.619 474.822 228.367C475.026 229.047 475.128 229.693 475.128 230.306C475.128 231.122 474.788 232.074 474.108 233.163C473.427 234.183 472.237 234.659 470.536 234.591C469.108 234.591 468.019 234.115 467.271 233.163C466.523 232.142 466.148 230.952 466.148 229.591C466.148 227.278 466.999 225.204 468.699 223.367C470.468 221.53 472.883 220.067 475.944 218.979C479.006 217.89 482.475 217.346 486.353 217.346C492.067 217.346 496.285 218.877 499.006 221.938C501.727 224.931 503.054 229.693 502.986 236.224C502.986 238.741 502.986 241.292 502.986 243.877C502.986 246.394 502.952 248.945 502.884 251.53C502.884 254.047 502.884 256.598 502.884 259.184C502.884 260.272 502.85 261.36 502.782 262.449C502.713 263.537 502.611 264.762 502.475 266.122C503.7 266.054 504.89 265.986 506.047 265.918C507.271 265.85 508.496 265.782 509.72 265.714V270H495.128ZM494.21 245C491.897 245.068 489.448 245.374 486.863 245.918C484.346 246.394 481.999 247.143 479.822 248.163C477.713 249.183 475.978 250.544 474.618 252.245C473.325 253.877 472.713 255.884 472.781 258.265C472.917 260.782 473.734 262.687 475.23 263.98C476.795 265.204 478.632 265.816 480.74 265.816C483.53 265.816 485.945 265.306 487.985 264.286C490.094 263.197 492.169 261.701 494.21 259.796C494.142 259.047 494.108 258.231 494.108 257.347C494.108 256.462 494.108 255.544 494.108 254.592C494.108 254.252 494.108 253.163 494.108 251.326C494.176 249.49 494.21 247.381 494.21 245ZM547.67 270.306L533.078 237.04C531.99 234.455 531.14 232.244 530.527 230.408C529.915 228.571 529.473 227.04 529.201 225.816C528.997 224.591 528.861 223.605 528.793 222.857L524.405 223.163V218.979H543.181V222.04C541.14 222.04 539.813 222.584 539.201 223.673C538.657 224.693 538.589 226.088 538.997 227.857C539.405 229.557 540.017 231.394 540.834 233.367L548.691 251.326C549.235 252.483 549.745 253.707 550.222 255C550.766 256.224 551.276 257.517 551.752 258.877H551.854C552.194 257.857 552.569 256.769 552.977 255.612C553.453 254.456 553.861 253.333 554.201 252.245L562.365 229.897C562.909 228.265 563.487 226.836 564.099 225.612C564.712 224.387 565.154 223.469 565.426 222.857L558.895 223.163V218.979H575.018V222.04C573.521 222.04 572.263 222.55 571.242 223.571C570.222 224.591 569.235 226.122 568.283 228.163C567.399 230.204 566.344 232.755 565.12 235.816L551.752 270.306H547.67ZM616.753 271.633C612.059 271.633 607.807 270.544 603.998 268.367C600.256 266.122 597.297 262.993 595.12 258.979C592.943 254.898 591.855 250.102 591.855 244.592C591.855 239.83 592.909 235.374 595.018 231.224C597.195 227.074 600.222 223.741 604.1 221.224C607.977 218.639 612.467 217.346 617.569 217.346C620.427 217.346 623.08 217.822 625.529 218.775C628.046 219.659 630.257 221.054 632.161 222.959C634.066 224.795 635.563 227.142 636.651 229.999C637.74 232.789 638.284 236.088 638.284 239.898L602.365 240.51C602.365 245.68 602.909 250.238 603.998 254.183C605.154 258.061 606.991 261.088 609.508 263.265C612.025 265.374 615.256 266.429 619.202 266.429C621.311 266.429 623.454 266.054 625.631 265.306C627.876 264.558 629.95 263.537 631.855 262.245C633.76 260.952 635.291 259.524 636.447 257.959L638.896 260C637.059 262.857 634.848 265.136 632.263 266.837C629.678 268.537 627.025 269.762 624.304 270.51C621.583 271.259 619.066 271.633 616.753 271.633ZM602.671 236.224H628.692C628.692 233.775 628.318 231.428 627.569 229.183C626.889 226.87 625.733 224.999 624.1 223.571C622.467 222.074 620.324 221.326 617.671 221.326C613.726 221.326 610.426 222.516 607.773 224.897C605.188 227.21 603.488 230.986 602.671 236.224ZM681.651 271.633C677.977 271.633 674.882 270.952 672.365 269.592C669.916 268.231 668.045 265.918 666.753 262.653C665.528 259.388 664.916 254.966 664.916 249.387V231.224C664.916 230.136 664.916 229.047 664.916 227.959C664.984 226.87 665.12 225.748 665.324 224.591C664.168 224.659 662.977 224.727 661.753 224.795C660.596 224.795 659.44 224.829 658.283 224.897V220.714H661.447C664.372 220.714 666.481 220.442 667.773 219.897C669.134 219.285 670.188 218.639 670.937 217.959H673.896V249.081C673.896 254.932 674.712 259.32 676.345 262.245C678.045 265.102 680.903 266.497 684.916 266.429C687.501 266.36 689.95 265.578 692.263 264.082C694.644 262.517 696.549 260.68 697.978 258.571V232.346C697.978 230.714 698.012 229.319 698.08 228.163C698.148 226.938 698.284 225.748 698.488 224.591C697.263 224.659 696.039 224.727 694.814 224.795C693.59 224.795 692.365 224.829 691.141 224.897V220.714H694.304C697.229 220.714 699.338 220.442 700.631 219.897C701.991 219.285 703.046 218.639 703.794 217.959H706.753L706.651 256.53C706.651 257.619 706.617 259.15 706.549 261.122C706.481 263.095 706.379 264.762 706.243 266.122C707.468 266.054 708.692 265.986 709.917 265.918C711.141 265.85 712.366 265.782 713.59 265.714V270H698.998C698.794 268.844 698.624 267.755 698.488 266.735C698.42 265.714 698.352 264.762 698.284 263.877C696.175 265.986 693.624 267.823 690.631 269.388C687.637 270.884 684.644 271.633 681.651 271.633ZM733.762 266.939C735.871 266.939 737.333 266.429 738.15 265.408C738.966 264.32 739.442 262.857 739.578 261.02C739.714 259.116 739.782 256.939 739.782 254.49V231.224C739.782 230.136 739.782 229.047 739.782 227.959C739.85 226.87 739.986 225.748 740.19 224.591C738.966 224.659 737.741 224.727 736.517 224.795C735.36 224.795 734.17 224.829 732.945 224.897V220.714H736.109C739.034 220.714 741.041 220.442 742.129 219.897C743.286 219.285 744.238 218.639 744.986 217.959H747.946C748.082 219.047 748.184 220.408 748.252 222.04C748.32 223.605 748.388 225.612 748.456 228.061C749.476 226.36 750.871 224.693 752.64 223.061C754.408 221.428 756.381 220.067 758.558 218.979C760.803 217.89 763.15 217.346 765.599 217.346C767.504 217.346 769.17 217.856 770.599 218.877C772.028 219.897 772.742 221.53 772.742 223.775C772.742 224.319 772.572 224.999 772.232 225.816C771.891 226.564 771.347 227.244 770.599 227.857C769.851 228.401 768.864 228.673 767.64 228.673C766.143 228.605 764.953 228.027 764.068 226.938C763.184 225.782 762.844 224.455 763.048 222.959C761.347 222.891 759.578 223.333 757.742 224.285C755.973 225.238 754.306 226.564 752.742 228.265C751.177 229.897 749.782 231.836 748.558 234.081L748.66 259.184C748.66 260.544 748.626 261.769 748.558 262.857C748.558 263.877 748.456 264.966 748.252 266.122C749.34 266.054 750.395 266.02 751.415 266.02C752.503 265.952 753.592 265.884 754.68 265.816V270H733.762V266.939ZM811.581 271.633C808.179 271.633 805.152 271.156 802.499 270.204C799.846 269.32 797.669 268.299 795.968 267.143L796.377 270.714H792.091L791.479 253.163H794.642C794.778 255.952 795.56 258.469 796.989 260.714C798.417 262.891 800.254 264.592 802.499 265.816C804.744 267.041 807.159 267.653 809.744 267.653C811.513 267.653 813.248 267.381 814.948 266.837C816.649 266.224 818.078 265.34 819.234 264.184C820.39 262.959 820.969 261.428 820.969 259.592C820.969 257.687 820.39 256.122 819.234 254.898C818.146 253.605 816.683 252.483 814.846 251.53C813.009 250.578 811.037 249.694 808.928 248.877C806.887 248.061 804.846 247.211 802.805 246.326C800.764 245.442 798.86 244.387 797.091 243.163C795.39 241.938 794.03 240.442 793.009 238.673C791.989 236.904 791.479 234.727 791.479 232.142C791.479 230.714 791.751 229.149 792.295 227.448C792.839 225.748 793.757 224.149 795.05 222.652C796.343 221.088 798.111 219.829 800.356 218.877C802.601 217.856 805.458 217.346 808.928 217.346C810.765 217.346 812.805 217.652 815.05 218.265C817.295 218.877 819.472 220.033 821.581 221.734L821.377 217.856H825.663V235.714H822.397C822.261 233.333 821.717 231.054 820.765 228.877C819.812 226.632 818.418 224.795 816.581 223.367C814.744 221.87 812.363 221.122 809.438 221.122C806.309 221.122 803.86 221.904 802.091 223.469C800.322 225.033 799.438 226.836 799.438 228.877C799.438 230.986 800.084 232.755 801.377 234.183C802.737 235.544 804.472 236.734 806.581 237.755C808.69 238.775 810.935 239.762 813.316 240.714C815.901 241.802 818.418 242.993 820.867 244.285C823.316 245.578 825.323 247.211 826.887 249.183C828.452 251.088 829.234 253.571 829.234 256.632C829.234 260.034 828.35 262.857 826.581 265.102C824.88 267.347 822.669 268.98 819.948 270C817.295 271.088 814.506 271.633 811.581 271.633Z" fill="#262221"/>
<g clip-path="url(#clip0_112_307)">
<path d="M436.434 81.121C438.975 81.3974 441.267 82.3075 443.329 83.8131C444.047 84.3374 444.724 84.908 445.344 85.5428C446.551 86.7802 447.562 88.1645 448.388 89.6848C449.455 91.6487 450.173 93.7361 450.572 95.9296C450.718 96.734 450.805 97.5528 450.86 98.369C450.917 99.1975 450.942 100.033 450.903 100.862C450.868 101.591 450.75 102.319 450.626 103.041C450.229 105.366 449.596 107.632 448.894 109.88C447.966 112.851 446.918 115.781 445.803 118.687C444.444 122.229 443.005 125.738 441.494 129.217C440.487 131.537 439.459 133.847 438.418 136.151C437.6 137.964 436.747 139.761 435.909 141.564C435.765 141.876 435.617 142.187 435.448 142.545C435.386 142.439 435.342 142.373 435.308 142.303C434.359 140.359 433.402 138.419 432.468 136.469C431.694 134.85 430.923 133.229 430.193 131.591C428.807 128.482 427.419 125.373 426.092 122.239C425.052 119.782 424.089 117.292 423.117 114.806C422.677 113.68 422.289 112.532 421.893 111.389C421.183 109.336 420.538 107.264 420.03 105.151C419.719 103.86 419.444 102.562 419.342 101.235C419.295 100.622 419.263 100.004 419.286 99.3904C419.353 97.53 419.611 95.6959 420.127 93.9024C420.489 92.6424 420.952 91.421 421.542 90.2501C422.299 88.7459 423.227 87.3523 424.357 86.1022C426.036 84.2435 428.022 82.8137 430.376 81.9235C431.339 81.5594 432.332 81.3041 433.357 81.1853C433.475 81.1716 433.592 81.153 433.763 81.1337C433.929 81.109 434.042 81.0872 434.155 81.0654C434.763 81.0654 435.371 81.0654 436.026 81.0848C436.193 81.1098 436.314 81.1154 436.434 81.121Z" fill="url(#paint0_linear_112_307)"/>
<path d="M420.181 157.01C420.067 156.984 419.95 156.97 419.841 156.931C416.978 155.915 414.096 154.966 411.154 154.199C408.886 153.608 406.604 153.073 404.306 152.617C402.708 152.3 401.096 152.053 399.485 151.81C398.153 151.608 396.814 151.447 395.475 151.288C394.244 151.142 393.01 151.022 391.776 150.895C390.693 150.783 389.609 150.677 388.526 150.57C386.431 150.363 384.345 150.098 382.281 149.685C380.874 149.402 379.462 149.134 378.066 148.802C376.562 148.444 375.081 148 373.655 147.393C372.877 147.061 372.118 146.693 371.449 146.168C370.882 145.723 370.364 145.234 370.167 144.502C370.159 144.473 370.128 144.451 370.086 144.417C370.065 144.146 370.065 143.885 370.065 143.593C370.104 143.527 370.162 143.499 370.178 143.455C370.423 142.757 370.941 142.287 371.513 141.867C372.226 141.344 373.021 140.976 373.843 140.667C375.163 140.17 376.529 139.855 377.924 139.654C378.875 139.517 379.828 139.408 380.791 139.395C381.569 139.384 382.349 139.327 383.125 139.358C384.267 139.403 385.405 139.501 386.541 139.643C388.263 139.858 389.939 140.26 391.6 140.741C393.315 141.238 394.998 141.827 396.662 142.471C399.094 143.413 401.471 144.48 403.795 145.664C405.415 146.49 406.995 147.386 408.537 148.35C409.693 149.072 410.846 149.801 411.978 150.559C413.912 151.853 415.777 153.241 417.561 154.736C418.381 155.423 419.195 156.117 420.011 156.808C420.069 156.857 420.119 156.914 420.176 156.989C420.18 157.011 420.181 157.01 420.181 157.01Z" fill="url(#paint1_linear_112_307)"/>
<path d="M500.065 144.507C499.736 145.481 499.016 146.068 498.203 146.565C497.023 147.288 495.732 147.756 494.421 148.17C492.729 148.704 491.004 149.105 489.265 149.446C488.11 149.672 486.952 149.881 485.789 150.057C484.724 150.219 483.651 150.336 482.58 150.458C481.53 150.577 480.477 150.671 479.426 150.785C478.151 150.924 476.876 151.068 475.602 151.219C474.51 151.348 473.415 151.468 472.328 151.631C470.664 151.882 469.001 152.145 467.344 152.441C464.792 152.897 462.271 153.503 459.763 154.159C457.913 154.643 456.076 155.175 454.268 155.803C452.972 156.254 451.676 156.708 450.38 157.158C450.301 157.186 450.217 157.199 450.116 157.179C450.611 156.741 451.096 156.29 451.605 155.867C452.72 154.943 453.826 154.006 454.973 153.124C456.156 152.215 457.37 151.345 458.596 150.494C460.463 149.199 462.392 147.998 464.365 146.871C465.004 146.506 465.652 146.159 466.302 145.814C468.003 144.911 469.745 144.093 471.517 143.34C474.535 142.058 477.606 140.927 480.799 140.157C481.882 139.896 482.977 139.708 484.084 139.596C484.942 139.509 485.804 139.443 486.665 139.4C487.453 139.361 488.244 139.326 489.031 139.357C491.107 139.438 493.163 139.683 495.166 140.263C496.406 140.621 497.605 141.083 498.674 141.83C499.111 142.136 499.51 142.484 499.793 142.941C499.893 143.104 499.951 143.292 500.047 143.484C500.065 143.824 500.065 144.151 500.065 144.507Z" fill="url(#paint2_linear_112_307)"/>
<path d="M432.184 159.822C431.862 159.39 431.524 158.968 431.219 158.524C429.826 156.5 428.326 154.558 426.76 152.667C425.926 151.66 425.041 150.696 424.172 149.719C422.762 148.133 421.251 146.643 419.734 145.16C418.157 143.619 416.507 142.156 414.815 140.74C413.007 139.225 411.153 137.771 409.247 136.382C407.252 134.929 405.23 133.515 403.128 132.222C401.184 131.026 399.219 129.865 397.271 128.676C395.793 127.774 394.329 126.851 392.857 125.94C390.934 124.751 388.997 123.585 387.09 122.371C385.483 121.349 383.902 120.287 382.327 119.218C381.36 118.561 380.449 117.828 379.606 117.017C379.059 116.492 378.545 115.934 378.215 115.237C378.075 114.941 377.984 114.633 377.984 114.301C377.985 113.871 378.164 113.536 378.489 113.261C378.758 113.033 379.065 112.88 379.393 112.765C380.103 112.517 380.838 112.394 381.586 112.375C382.235 112.359 382.886 112.358 383.534 112.394C384.201 112.432 384.868 112.504 385.53 112.595C386.761 112.765 387.975 113.023 389.176 113.343C390.514 113.699 391.829 114.126 393.124 114.617C394.835 115.266 396.5 116.017 398.124 116.86C399.363 117.503 400.575 118.193 401.747 118.953C404.093 120.474 406.301 122.175 408.419 123.997C410.003 125.359 411.504 126.812 412.957 128.312C415.147 130.574 417.204 132.951 419.128 135.444C420.544 137.277 421.891 139.159 423.148 141.104C424.374 143.003 425.548 144.936 426.612 146.931C427.299 148.219 427.978 149.513 428.61 150.829C429.162 151.977 429.639 153.162 430.157 154.327C430.944 156.097 431.549 157.935 432.206 159.781C432.198 159.812 432.184 159.822 432.184 159.822Z" fill="url(#paint3_linear_112_307)"/>
<path d="M491.859 115.541C491.323 116.397 490.621 117.069 489.872 117.695C488.125 119.154 486.236 120.415 484.311 121.622C482.157 122.973 480.003 124.321 477.837 125.652C474.981 127.408 472.116 129.149 469.25 130.89C466.761 132.401 464.328 133.997 461.982 135.721C460.388 136.892 458.811 138.089 457.259 139.315C456.157 140.185 455.105 141.119 454.038 142.033C452.131 143.667 450.343 145.429 448.589 147.223C446.729 149.125 444.95 151.099 443.276 153.168C441.718 155.095 440.243 157.082 438.839 159.123C438.651 159.396 438.453 159.662 438.21 159.916C438.21 159.882 438.201 159.845 438.212 159.815C438.79 158.232 439.334 156.635 439.961 155.072C440.577 153.538 441.254 152.028 441.949 150.528C443.285 147.651 444.855 144.9 446.519 142.201C447.968 139.851 449.527 137.577 451.226 135.402C452.343 133.972 453.511 132.581 454.681 131.193C456.187 129.404 457.828 127.739 459.506 126.113C461.02 124.646 462.619 123.273 464.28 121.973C465.687 120.873 467.117 119.805 468.627 118.851C469.596 118.24 470.594 117.673 471.598 117.12C473.105 116.29 474.674 115.586 476.27 114.944C478.309 114.123 480.398 113.457 482.546 112.988C483.726 112.73 484.918 112.52 486.126 112.436C486.568 112.405 487.01 112.396 487.452 112.369C488.273 112.318 489.088 112.376 489.897 112.515C490.442 112.609 490.971 112.765 491.452 113.051C492.161 113.473 492.403 114.081 492.157 114.871C492.087 115.095 491.968 115.304 491.859 115.541Z" fill="url(#paint4_linear_112_307)"/>
<path d="M432.205 159.806C432.223 159.831 432.235 159.861 432.247 159.891C432.229 159.879 432.211 159.866 432.189 159.838C432.185 159.822 432.198 159.811 432.205 159.806Z" fill="url(#paint5_linear_112_307)"/>
<path d="M420.18 157.012C420.194 157.022 420.208 157.031 420.222 157.041C420.207 157.04 420.191 157.04 420.178 157.025C420.181 157.011 420.18 157.012 420.18 157.012Z" fill="url(#paint6_linear_112_307)"/>
</g>
<path fill-rule="evenodd" clip-rule="evenodd" d="M643.09 292C634.793 299.224 625.472 306.022 615.226 312.316C569.445 340.441 505.883 358 435.41 358C364.937 358 301.375 340.441 255.594 312.316C245.348 306.022 236.027 299.224 227.73 292H220.253C266.453 334.789 345.569 363 435.41 363C525.251 363 604.367 334.789 650.567 292H643.09ZM186.201 178C195.179 146.945 219.711 118.728 255.594 96.6838C301.375 68.5587 364.937 51 435.41 51C505.883 51 569.445 68.5587 615.226 96.6838C651.109 118.728 675.641 146.945 684.619 178H689.82C669.293 103.078 563.201 46 435.41 46C307.619 46 201.527 103.078 181 178H186.201Z" fill="#AD5737"/>
<path fill-rule="evenodd" clip-rule="evenodd" d="M830.034 173H685.034V178H830.034V173ZM41.0345 174L186.034 175L186 180L41 179L41.0345 174ZM228.034 292L41.0345 291L41.0078 296L228.008 297L228.034 292ZM643.034 297H826.034V292H643.034V297Z" fill="#AD5737"/>
<path fill-rule="evenodd" clip-rule="evenodd" d="M675.829 297C664.54 308.575 651.15 319.333 635.913 329.061C584.9 361.628 514.001 382 435.326 382C356.651 382 285.751 361.628 234.739 329.061C219.501 319.333 206.112 308.575 194.823 297H185.216C235.241 352.009 328.517 389 435.326 389C542.135 389 635.411 352.009 685.436 297H675.829ZM157.24 175C166.96 138.728 194.363 105.715 234.739 79.939C285.751 47.372 356.651 27 435.326 27C514.001 27 584.9 47.372 635.913 79.939C676.288 105.715 703.691 138.728 713.411 175H720.651C698.532 87.1261 579.208 20 435.326 20C291.443 20 172.119 87.1261 150 175H157.24Z" fill="url(#paint7_linear_112_307)"/>
<defs>
<linearGradient id="paint0_linear_112_307" x1="435.1" y1="81.0654" x2="435.1" y2="142.545" gradientUnits="userSpaceOnUse">
<stop stop-color="#AD5737"/>
<stop offset="1" stop-color="#D9B589"/>
</linearGradient>
<linearGradient id="paint1_linear_112_307" x1="395.123" y1="139.349" x2="395.123" y2="157.01" gradientUnits="userSpaceOnUse">
<stop stop-color="#AD5737"/>
<stop offset="1" stop-color="#D9B589"/>
</linearGradient>
<linearGradient id="paint2_linear_112_307" x1="475.09" y1="139.345" x2="475.09" y2="157.188" gradientUnits="userSpaceOnUse">
<stop stop-color="#AD5737"/>
<stop offset="1" stop-color="#D9B589"/>
</linearGradient>
<linearGradient id="paint3_linear_112_307" x1="405.095" y1="112.364" x2="405.095" y2="159.822" gradientUnits="userSpaceOnUse">
<stop stop-color="#AD5737"/>
<stop offset="1" stop-color="#D9B589"/>
</linearGradient>
<linearGradient id="paint4_linear_112_307" x1="465.229" y1="112.351" x2="465.229" y2="159.916" gradientUnits="userSpaceOnUse">
<stop stop-color="#AD5737"/>
<stop offset="1" stop-color="#D9B589"/>
</linearGradient>
<linearGradient id="paint5_linear_112_307" x1="432.218" y1="159.806" x2="432.218" y2="159.891" gradientUnits="userSpaceOnUse">
<stop stop-color="#AD5737"/>
<stop offset="1" stop-color="#D9B589"/>
</linearGradient>
<linearGradient id="paint6_linear_112_307" x1="420.2" y1="157.012" x2="420.2" y2="157.041" gradientUnits="userSpaceOnUse">
<stop stop-color="#AD5737"/>
<stop offset="1" stop-color="#D9B589"/>
</linearGradient>
<linearGradient id="paint7_linear_112_307" x1="435.326" y1="20" x2="435.326" y2="389" gradientUnits="userSpaceOnUse">
<stop stop-color="#33302F"/>
<stop offset="0.515625" stop-color="#3D3A3A"/>
<stop offset="1" stop-color="#262221"/>
</linearGradient>
<clipPath id="clip0_112_307">
<rect width="130" height="79" fill="white" transform="translate(370 81)"/>
</clipPath>
</defs>
</svg>
