<svg width="20" height="20" viewBox="0 0 20 20" fill="none" xmlns="http://www.w3.org/2000/svg">
<path d="M7.53333 17.9501C8.33333 18.1917 9.14167 18.3334 10 18.3334C12.2101 18.3334 14.3298 17.4554 15.8926 15.8926C17.4554 14.3298 18.3333 12.2102 18.3333 10.0001C18.3333 8.90573 18.1178 7.8221 17.699 6.81105C17.2802 5.80001 16.6664 4.88135 15.8926 4.10752C15.1187 3.3337 14.2001 2.71987 13.189 2.30109C12.178 1.8823 11.0943 1.66675 10 1.66675C8.90565 1.66675 7.82202 1.8823 6.81097 2.30109C5.79993 2.71987 4.88127 3.3337 4.10744 4.10752C2.54464 5.67033 1.66667 7.78994 1.66667 10.0001C1.66667 13.5417 3.89167 16.5834 7.03333 17.7834C6.95833 17.1334 6.88333 16.0584 7.03333 15.3167L7.99167 11.2001C7.99167 11.2001 7.75 10.7167 7.75 9.95008C7.75 8.80008 8.46667 7.94175 9.28333 7.94175C10 7.94175 10.3333 8.46675 10.3333 9.14175C10.3333 9.85841 9.85833 10.8834 9.61667 11.8667C9.475 12.6834 10.05 13.4001 10.8833 13.4001C12.3667 13.4001 13.5167 11.8167 13.5167 9.58341C13.5167 7.58341 12.0833 6.21675 10.025 6.21675C7.675 6.21675 6.29167 7.96675 6.29167 9.80841C6.29167 10.5251 6.525 11.2501 6.90833 11.7251C6.98333 11.7751 6.98333 11.8417 6.95833 11.9667L6.71667 12.8751C6.71667 13.0167 6.625 13.0667 6.48333 12.9667C5.41667 12.5001 4.8 10.9834 4.8 9.75841C4.8 7.12508 6.66667 4.73341 10.2667 4.73341C13.1333 4.73341 15.3667 6.79175 15.3667 9.52508C15.3667 12.3917 13.5917 14.6917 11.05 14.6917C10.2417 14.6917 9.45 14.2584 9.16667 13.7501L8.60833 15.7251C8.41667 16.4417 7.89167 17.4001 7.53333 17.9751V17.9501Z" fill="white"/>
</svg>
