<svg width="24" height="24" viewBox="0 0 24 24" fill="none" xmlns="http://www.w3.org/2000/svg">
<path fill-rule="evenodd" clip-rule="evenodd" d="M8.41803 3.25C8.69803 2.66 9.30203 2.25 10 2.25H14C14.698 2.25 15.301 2.66 15.582 3.25C16.265 3.256 16.798 3.287 17.274 3.473C17.8423 3.69527 18.3364 4.07301 18.7 4.563C19.067 5.057 19.24 5.69 19.476 6.561L20.218 9.283L20.498 10.124L20.522 10.154C21.423 11.308 20.994 13.024 20.136 16.455C19.59 18.638 19.318 19.729 18.504 20.365C17.69 21 16.565 21 14.315 21H9.68503C7.43503 21 6.31003 21 5.49603 20.365C4.68203 19.729 4.40903 18.638 3.86403 16.455C3.00603 13.024 2.57703 11.308 3.47803 10.154L3.50203 10.124L3.78203 9.283L4.52403 6.561C4.76103 5.69 4.93403 5.056 5.30003 4.562C5.66376 4.07238 6.15793 3.695 6.72603 3.473C7.20203 3.287 7.73403 3.255 8.41803 3.25ZM8.42003 4.752C7.75803 4.759 7.49203 4.784 7.27203 4.87C6.966 4.98968 6.69984 5.19311 6.50403 5.457C6.32803 5.694 6.22403 6.025 5.93403 7.092L5.36403 9.181C6.38403 9 7.77803 9 9.68403 9H14.315C16.222 9 17.615 9 18.635 9.18L18.066 7.091C17.776 6.024 17.672 5.693 17.496 5.456C17.3002 5.19211 17.0341 4.98868 16.728 4.869C16.508 4.783 16.242 4.758 15.58 4.751C15.438 5.04985 15.2142 5.30232 14.9346 5.47914C14.6549 5.65596 14.3309 5.74987 14 5.75H10C9.66928 5.74996 9.3453 5.6562 9.06566 5.47956C8.78602 5.30293 8.56216 5.05066 8.42003 4.752Z" fill="#262221"/>
</svg>
